<svg xmlns="http://www.w3.org/2000/svg" width="143.971" height="48.894" viewBox="0 0 143.971 48.894">
  <g id="Group_11248" data-name="Group 11248" transform="translate(-791.282 -2930.168)">
    <g id="Group_11243" data-name="Group 11243" transform="translate(791.782 2930.668)">
      <path id="Path_9796" data-name="Path 9796" d="M343.716,81.562H214.91a7.091,7.091,0,0,1-7.083-7.083V40.751a7.091,7.091,0,0,1,7.083-7.083H343.716a7.091,7.091,0,0,1,7.082,7.083V74.479A7.09,7.09,0,0,1,343.716,81.562ZM214.91,35.341a5.416,5.416,0,0,0-5.41,5.41V74.479a5.416,5.416,0,0,0,5.41,5.41H343.716a5.415,5.415,0,0,0,5.409-5.41V40.751a5.415,5.415,0,0,0-5.409-5.41Z" transform="translate(-207.827 -33.668)" fill="#c3c3c3" stroke="#fff" stroke-width="1"/>
    </g>
    <g id="Group_11245" data-name="Group 11245" transform="translate(835.296 2949.299)">
      <path id="Path_9809" data-name="Path 9809" d="M273.727,63.668a6.188,6.188,0,0,1-1.707,4.583,6.651,6.651,0,0,1-5.043,2.034,7.172,7.172,0,1,1,0-14.344,7.075,7.075,0,0,1,2.819.575,5.654,5.654,0,0,1,2.148,1.534l-1.209,1.208a4.633,4.633,0,0,0-3.759-1.63,5.485,5.485,0,1,0,3.836,9.435,4.307,4.307,0,0,0,1.15-2.781h-4.986V62.632h6.655A5.919,5.919,0,0,1,273.727,63.668Z" transform="translate(-259.844 -55.94)" fill="#443b3f"/>
      <path id="Path_9810" data-name="Path 9810" d="M278.673,62.549a4.931,4.931,0,0,1,6.942,0,5.38,5.38,0,0,1,0,7.153,4.931,4.931,0,0,1-6.942,0,5.377,5.377,0,0,1,0-7.153Zm1.314,6.041a2.967,2.967,0,0,0,4.315,0,3.789,3.789,0,0,0,0-4.929,2.969,2.969,0,0,0-4.315,0,3.789,3.789,0,0,0,0,4.929Z" transform="translate(-262.699 -56.787)" fill="#443b3f"/>
      <path id="Path_9811" data-name="Path 9811" d="M290.938,62.549a4.931,4.931,0,0,1,6.942,0,5.38,5.38,0,0,1,0,7.153,4.931,4.931,0,0,1-6.942,0,5.377,5.377,0,0,1,0-7.153Zm1.313,6.041a2.968,2.968,0,0,0,4.316,0,3.792,3.792,0,0,0,0-4.929,2.97,2.97,0,0,0-4.316,0,3.789,3.789,0,0,0,0,4.929Z" transform="translate(-264.704 -56.787)" fill="#443b3f"/>
      <path id="Path_9812" data-name="Path 9812" d="M306.463,75.272a4.259,4.259,0,0,1-2.724-.834,4.894,4.894,0,0,1-1.514-1.908l1.611-.671a2.636,2.636,0,0,0,.987,1.284,2.731,2.731,0,0,0,1.64.518,3.018,3.018,0,0,0,2.291-.873,3.282,3.282,0,0,0,.834-2.368v-.9h-.076a3.6,3.6,0,0,1-1.3,1.15,3.9,3.9,0,0,1-1.9.461,4.131,4.131,0,0,1-3.145-1.439,5.469,5.469,0,0,1,0-7.134,4.133,4.133,0,0,1,3.145-1.438,3.91,3.91,0,0,1,1.9.46,3.6,3.6,0,0,1,1.3,1.151h.076v-1.3h1.688v8.917a4.684,4.684,0,0,1-1.4,3.673A4.93,4.93,0,0,1,306.463,75.272Zm.134-5.753a2.813,2.813,0,0,0,2.12-.921,3.946,3.946,0,0,0,0-4.947,2.879,2.879,0,0,0-4.229.009,3.882,3.882,0,0,0,0,4.929A2.805,2.805,0,0,0,306.6,69.52Z" transform="translate(-266.709 -56.787)" fill="#443b3f"/>
      <path id="Path_9813" data-name="Path 9813" d="M316.878,70.037h-1.764V56.306h1.764Z" transform="translate(-268.879 -56)" fill="#443b3f"/>
      <path id="Path_9814" data-name="Path 9814" d="M323.254,71.131a4.53,4.53,0,0,1-3.461-1.42,5.027,5.027,0,0,1-1.333-3.585,5.175,5.175,0,0,1,1.295-3.529,4.2,4.2,0,0,1,3.308-1.476,4.334,4.334,0,0,1,3.346,1.362,5.163,5.163,0,0,1,1.256,3.644l-.019.325h-7.422a3.189,3.189,0,0,0,.949,2.244,2.878,2.878,0,0,0,2.042.825,2.532,2.532,0,0,0,2.571-1.611l1.572.652a4.214,4.214,0,0,1-1.515,1.831A4.405,4.405,0,0,1,323.254,71.131Zm2.532-6.137a2.5,2.5,0,0,0-.739-1.534,2.639,2.639,0,0,0-2.024-.729,2.53,2.53,0,0,0-1.7.613,3.135,3.135,0,0,0-.988,1.65Z" transform="translate(-269.426 -56.787)" fill="#443b3f"/>
      <path id="Path_9815" data-name="Path 9815" d="M337.418,70.037h-1.765V56.306h4.68a4.342,4.342,0,0,1,3.02,1.159,3.991,3.991,0,0,1,0,5.85,4.338,4.338,0,0,1-3.02,1.159h-2.914Zm0-7.249h2.953a2.281,2.281,0,0,0,1.783-.749,2.361,2.361,0,0,0,0-3.3,2.278,2.278,0,0,0-1.783-.749h-2.953Z" transform="translate(-272.236 -56)" fill="#443b3f"/>
      <path id="Path_9816" data-name="Path 9816" d="M349.521,70.037h-1.763V56.306h1.763Z" transform="translate(-274.215 -56)" fill="#443b3f"/>
      <path id="Path_9817" data-name="Path 9817" d="M354.613,71.131a3.709,3.709,0,0,1-2.5-.863,2.857,2.857,0,0,1-1.008-2.282,2.82,2.82,0,0,1,1.19-2.407,4.827,4.827,0,0,1,2.934-.873,5.049,5.049,0,0,1,2.551.576v-.269a2.1,2.1,0,0,0-.709-1.658,2.547,2.547,0,0,0-1.745-.623,2.706,2.706,0,0,0-1.39.364,1.876,1.876,0,0,0-.853,1l-1.611-.69a3.652,3.652,0,0,1,1.285-1.563,4.111,4.111,0,0,1,2.532-.719,4.347,4.347,0,0,1,2.991,1.055,3.768,3.768,0,0,1,1.189,2.973v5.676h-1.688v-1.3H357.7A3.461,3.461,0,0,1,354.613,71.131Zm.288-1.611a2.874,2.874,0,0,0,1.985-.816,2.524,2.524,0,0,0,.891-1.927,3.478,3.478,0,0,0-2.244-.614,2.916,2.916,0,0,0-1.937.556,1.669,1.669,0,0,0-.652,1.3,1.255,1.255,0,0,0,.595,1.093A2.37,2.37,0,0,0,354.9,69.52Z" transform="translate(-274.762 -56.787)" fill="#443b3f"/>
      <path id="Path_9818" data-name="Path 9818" d="M365,75.025h-1.822l2.186-4.736-3.874-8.8h1.917l2.8,6.752h.038l2.723-6.752h1.917Z" transform="translate(-276.459 -56.847)" fill="#443b3f"/>
    </g>
    <g id="Group_11246" data-name="Group 11246" transform="translate(802.381 2941.144)">
      <path id="Path_9819" data-name="Path 9819" d="M220.5,61.356q0-6.578,0-13.157a1.975,1.975,0,0,1,.485-1.436c.148-.158.255-.2.437-.015q4.427,4.517,8.866,9.02,2.874,2.919,5.753,5.831c.187.188.2.287.005.484q-7.055,7.016-14.09,14.051a.484.484,0,0,1-.762.045,1.79,1.79,0,0,1-.694-1.52q0-3.9-.005-7.793,0-2.754,0-5.509Z" transform="translate(-220.497 -46.262)" fill="#333"/>
      <path id="Path_9820" data-name="Path 9820" d="M222.521,46.191a1.6,1.6,0,0,1,.855.238q9.009,5.048,18.022,10.091c.277.155.271.241.058.451q-2.015,1.983-4.008,3.987c-.144.144-.232.228-.424.031q-7.169-7.31-14.349-14.608C222.635,46.339,222.6,46.291,222.521,46.191Z" transform="translate(-220.827 -46.191)" fill="#333"/>
      <path id="Path_9821" data-name="Path 9821" d="M224.128,79.144q6.539-6.61,13.072-13.228c.27-.274.4-.238.637.014,1.105,1.151,2.227,2.286,3.353,3.416.2.2.215.279-.054.427q-8.395,4.6-16.782,9.207A2.313,2.313,0,0,0,224.128,79.144Z" transform="translate(-221.09 -49.384)" fill="#333"/>
      <path id="Path_9822" data-name="Path 9822" d="M251.783,63.564a1.374,1.374,0,0,1-.6,1.1,7.682,7.682,0,0,1-.834.509c-1.692.935-3.39,1.862-5.078,2.8a.38.38,0,0,1-.552-.074q-1.8-1.863-3.634-3.7c-.177-.179-.182-.276,0-.456q2.131-2.1,4.24-4.22a.341.341,0,0,1,.492-.069c1.671.948,3.35,1.881,5.027,2.821A1.539,1.539,0,0,1,251.783,63.564Z" transform="translate(-223.839 -48.348)" fill="#333"/>
    </g>
    <g id="Group_11335" data-name="Group 11335" transform="translate(783.944 2923.828)">
      <path id="Path_9906" data-name="Path 9906" d="M55.281,19.053a1.754,1.754,0,0,1-.483,1.3,1.884,1.884,0,0,1-1.428.575,2.03,2.03,0,1,1,0-4.06,2.012,2.012,0,0,1,.8.163,1.6,1.6,0,0,1,.608.435l-.341.341a1.314,1.314,0,0,0-1.064-.461,1.552,1.552,0,1,0,1.086,2.671,1.226,1.226,0,0,0,.326-.788H53.371v-.466h1.884A1.656,1.656,0,0,1,55.281,19.053Z" transform="translate(0)" fill="#333" stroke="#333" stroke-miterlimit="10" stroke-width="0.2"/>
      <path id="Path_9907" data-name="Path 9907" d="M60.794,17.477h-1.77V18.71h1.6v.466h-1.6v1.233h1.77v.477H58.525V17h2.269Z" transform="translate(-2.527 -0.047)" fill="#333" stroke="#333" stroke-miterlimit="10" stroke-width="0.2"/>
      <path id="Path_9908" data-name="Path 9908" d="M64.417,20.886h-.5V17.477H62.832V17H65.5v.477H64.417Z" transform="translate(-4.044 -0.047)" fill="#333" stroke="#333" stroke-miterlimit="10" stroke-width="0.2"/>
      <path id="Path_9909" data-name="Path 9909" d="M69.938,20.886V17h.5v3.886Z" transform="translate(-6.547 -0.047)" fill="#333" stroke="#333" stroke-miterlimit="10" stroke-width="0.2"/>
      <path id="Path_9910" data-name="Path 9910" d="M73.266,20.886h-.5V17.477H71.681V17h2.671v.477H73.266Z" transform="translate(-7.162 -0.047)" fill="#333" stroke="#333" stroke-miterlimit="10" stroke-width="0.2"/>
      <path id="Path_9911" data-name="Path 9911" d="M81.748,20.337a2.018,2.018,0,0,1-2.849,0,2.1,2.1,0,0,1,0-2.882,2.012,2.012,0,0,1,2.847,0,2.093,2.093,0,0,1,0,2.88Zm-2.481-.326a1.495,1.495,0,0,0,2.112,0,1.656,1.656,0,0,0,0-2.231,1.495,1.495,0,0,0-2.112,0,1.658,1.658,0,0,0,0,2.231Z" transform="translate(-9.502)" fill="#333" stroke="#333" stroke-miterlimit="10" stroke-width="0.2"/>
      <path id="Path_9912" data-name="Path 9912" d="M85.575,20.886V17h.608l1.889,3.023h.021l-.021-.749V17h.5v3.886h-.521l-1.976-3.17h-.021l.021.749v2.421Z" transform="translate(-12.056 -0.047)" fill="#333" stroke="#333" stroke-miterlimit="10" stroke-width="0.2"/>
    </g>
  </g>
</svg>
